<svg width="203" height="263" viewBox="0 0 203 263" fill="none" xmlns="http://www.w3.org/2000/svg">
<path d="M198.481 69.1315C198.481 107.312 155.061 138.263 101.5 138.263C47.939 138.263 4.51941 107.312 4.51941 69.1315C4.51941 30.9515 47.939 0.000274658 101.5 0.000274658C155.061 0.000274658 198.481 30.9515 198.481 69.1315Z" fill="#2C2C2C"/>
<path d="M193.379 163.316C193.379 167.078 157.571 170.127 113.401 170.127C69.2298 170.127 33.4222 167.078 33.4222 163.316C33.4222 159.555 69.2298 156.505 113.401 156.505C157.571 156.505 193.379 159.555 193.379 163.316Z" fill="#4A4A4A"/>
<path d="M85.9136 73.9454C83.5928 73.9454 81.3461 73.1308 79.564 71.6442L74.6203 67.5188C72.8411 66.0342 70.7278 65.2388 68.5623 65.2388H44.0261C41.7995 65.2388 39.9945 67.0438 39.9945 69.2704V73.9454V158.099C39.9945 161.941 43.1093 165.055 46.9515 165.055H169.264C172.253 165.055 174.675 162.633 174.675 159.645V79.3563C174.675 76.3679 172.253 73.9454 169.264 73.9454H85.9136Z" fill="#A3A3FF"/>
<path d="M174.675 160.098C174.675 160.098 166.351 144.483 165.518 142.691L142.769 96.3438C142.197 95.1121 140.962 94.3246 139.604 94.3246H55.0652C51.9919 94.3246 47.5469 92.7133 45.187 90.7442L41.7757 87.8979C39.9966 86.4133 37.8832 85.6179 35.7182 85.6179H12.3677C9.88237 85.6179 8.19405 88.1429 9.14374 90.4396L37.3796 158.731C38.9623 162.559 42.6962 165.055 46.8386 165.055H173.148C173.971 165.055 174.731 164.351 174.731 163.527L174.675 160.098Z" fill="#5A5AFF"/>
<path d="M140.289 98.7313L173.671 163.623" stroke="#FFFFFF" stroke-width="0.416667" stroke-miterlimit="10" stroke-linejoin="round"/>
<path d="M126.533 109.914H97.7777C96.9936 109.914 96.264 109.52 95.8427 108.868C94.8711 107.364 95.9681 105.397 97.7777 105.397H126.533C127.317 105.397 128.047 105.791 128.468 106.443C129.44 107.946 128.343 109.914 126.533 109.914Z" stroke="#FFFFFF" stroke-width="0.416667" stroke-miterlimit="10" stroke-linejoin="round"/>
<path d="M72.7427 132.217L95.1315 145.556" stroke="#FFFFFF" stroke-width="0.416667" stroke-miterlimit="10" stroke-linecap="round" stroke-linejoin="round"/>
<path d="M91.0481 131.575L76.9798 145.636" stroke="#FFFFFF" stroke-width="0.416667" stroke-miterlimit="10" stroke-linecap="round" stroke-linejoin="round"/>
<path d="M90.9311 127.999C99.1577 132.064 102.571 140.187 98.5552 146.141C94.539 152.095 84.6144 153.625 76.3877 149.56C68.1611 145.495 64.7477 137.372 68.7636 131.418C72.7798 125.464 82.7044 123.933 90.9311 127.999Z" stroke="#FFFFFF" stroke-width="0.416667" stroke-miterlimit="10" stroke-linecap="round" stroke-linejoin="round"/>
<path d="M166.512 70.168L166.443 70.2072C165.898 70.5134 165.207 70.3201 164.901 69.7751L154.381 51.0697L156.424 49.9205L166.944 68.6263C167.25 69.1713 167.057 69.8617 166.512 70.168Z" fill="#A3A3FF"/>
<path d="M159.581 54.0766L160.464 55.6461C160.703 56.072 160.595 56.5874 160.222 56.7974L158.314 57.8699C157.941 58.0799 157.444 57.9049 157.205 57.4791L156.284 55.8411" fill="#A3A3FF"/>
<path d="M155.499 38.7133C151.85 31.9438 147.276 27.2838 144.369 27.0658L144.465 26.4229L142.946 27.4133C140.335 29.1913 141.722 37.1329 146.045 45.1521C150.367 53.1708 155.988 58.23 158.599 56.4521L160.027 55.5L159.616 54.9496C160.621 51.8437 159.053 45.3062 155.499 38.7133Z" fill="#A3A3FF"/>
<path d="M157.019 37.7231C161.341 45.7418 162.729 53.6839 160.118 55.4618C157.507 57.2398 151.887 52.1806 147.564 44.1618C143.242 36.1431 141.854 28.201 144.465 26.4231C147.076 24.6452 152.696 29.7043 157.019 37.7231Z" fill="#5A5AFF"/>
<path d="M155.576 38.7056C159.094 45.2314 160.475 51.5235 158.661 52.7589C156.846 53.9943 152.524 49.7056 149.007 43.1793C145.489 36.6535 144.108 30.3614 145.922 29.126C147.736 27.8906 152.058 32.1797 155.576 38.7056Z" fill="#D1E2FF"/>
<path d="M155.576 38.7055C152.058 32.1797 147.736 27.8905 145.922 29.1259C145.779 29.2234 145.658 29.3559 145.554 29.5142C147.651 29.6417 151.319 33.6238 154.379 39.3009C157.619 45.3113 159.044 51.1201 157.832 52.9655C158.145 52.9847 158.425 52.9197 158.661 52.7588C160.475 51.5234 159.094 45.2313 155.576 38.7055Z" fill="#A3A3FF"/>
<path d="M153.127 36.1476C154.998 39.6193 155.733 42.9664 154.768 43.6234C153.803 44.2809 151.504 41.9993 149.632 38.5276C147.761 35.0564 147.026 31.7093 147.991 31.0518C148.956 30.3947 151.256 32.6764 153.127 36.1476Z" fill="#FFFFFF"/>
<path d="M168.094 59.785L171.064 58.3925C171.064 58.3925 174.685 62.3379 173.385 65.7267L169.765 66.7942C169.765 66.7942 171.436 63.0804 168.094 59.785Z" fill="#FFFFFF"/>
<path d="M45.5693 31.8626C53.8281 32.0876 60.6615 38.7026 61.1365 46.9509C61.416 51.8009 59.5365 56.2143 56.3735 59.328C55.906 59.788 55.689 60.4439 55.7981 61.0905L56.986 68.1201L49.6773 63.8614C49.2606 63.6189 48.7702 63.5301 48.2981 63.6251C46.511 63.9855 44.6183 64.0518 42.6673 63.7564C35.4468 62.6626 29.8135 56.6851 29.1476 49.4126C28.2599 39.7197 36.0018 31.6018 45.5693 31.8626Z" fill="#D1E2FF"/>
<path d="M44.1171 56.3122C44.1171 56.1159 44.1699 55.953 44.2757 55.8242C44.3815 55.6959 44.5256 55.6313 44.7071 55.6313C44.9187 55.6313 45.07 55.6922 45.1612 55.813C45.252 55.9342 45.2971 56.1005 45.2971 56.3122C45.2971 56.4938 45.2479 56.6526 45.1498 56.7888C45.051 56.9251 44.9037 56.9934 44.7071 56.9934C44.5101 56.9934 44.3628 56.9326 44.2644 56.8117C44.1659 56.6905 44.1171 56.5242 44.1171 56.3122ZM44.3894 53.4526L44.3441 49.6172C44.9037 49.4809 45.4143 49.3034 45.8757 49.0838C46.3373 48.8647 46.7419 48.6113 47.0898 48.3234C47.4377 48.0363 47.729 47.7151 47.964 47.3588C48.1982 47.0038 48.3756 46.6213 48.4973 46.213C48.6181 45.8047 48.679 45.3734 48.679 44.9197C48.679 44.2688 48.5198 43.6563 48.2019 43.0809C47.8844 42.5063 47.4307 42.0409 46.8407 41.6855C46.2507 41.3301 45.5469 41.1522 44.7299 41.1522C43.8522 41.1522 43.0393 41.3942 42.2901 41.8784C41.5411 42.3626 40.9698 43.1872 40.5767 44.3522L40.1682 44.0797C40.516 42.9755 41.0987 42.128 41.9157 41.538C42.7328 40.9476 43.6629 40.6526 44.7071 40.6526C45.5998 40.6526 46.3827 40.8422 47.0561 41.2201C47.729 41.5984 48.2548 42.1092 48.6332 42.7522C49.0115 43.3951 49.2011 44.1176 49.2011 44.9197C49.2011 45.5247 49.099 46.0922 48.8944 46.6213C48.6902 47.1513 48.4027 47.6355 48.0319 48.0738C47.6611 48.513 47.2111 48.8951 46.6815 49.2201C46.1516 49.5459 45.5542 49.7913 44.8885 49.9576L44.8434 53.4526H44.3894Z" fill="#FFFFFF"/>
</svg>
