<svg width="40" height="41" viewBox="0 0 40 41" fill="none" xmlns="http://www.w3.org/2000/svg">
<path opacity="0.21" fill-rule="evenodd" clip-rule="evenodd" d="M0 20.5V25.1667C0 33.635 6.86497 40.5 15.3333 40.5H20H24.6667C33.135 40.5 40 33.635 40 25.1667V20.5V15.8333C40 7.36497 33.135 0.5 24.6667 0.5H20H15.3333C6.86497 0.5 0 7.36497 0 15.8333V20.5Z" fill="#6F42C1"/>
<path d="M30.4466 21.4688L27.4466 13.9688C27.3905 13.8301 27.2942 13.7113 27.17 13.6278C27.0459 13.5442 26.8996 13.4997 26.75 13.5C26.6954 13.5008 26.641 13.5074 26.5878 13.5197L20.75 14.8125V12.75C20.75 12.5511 20.671 12.3603 20.5303 12.2197C20.3897 12.079 20.1989 12 20 12C19.8011 12 19.6103 12.079 19.4697 12.2197C19.329 12.3603 19.25 12.5511 19.25 12.75V15.1481L13.0878 16.5197C12.969 16.5456 12.8583 16.6 12.7652 16.6783C12.6721 16.7565 12.5994 16.8562 12.5535 16.9688L9.55345 24.4688C9.51756 24.5581 9.49941 24.6537 9.50001 24.75C9.50001 26.9353 11.8006 27.75 13.25 27.75C14.6994 27.75 17 26.9353 17 24.75C17.0006 24.6537 16.9825 24.5581 16.9466 24.4688L14.2738 17.7909L19.25 16.6875V28.5H17.75C17.5511 28.5 17.3603 28.579 17.2197 28.7197C17.079 28.8603 17 29.0511 17 29.25C17 29.4489 17.079 29.6397 17.2197 29.7803C17.3603 29.921 17.5511 30 17.75 30H22.25C22.4489 30 22.6397 29.921 22.7803 29.7803C22.921 29.6397 23 29.4489 23 29.25C23 29.0511 22.921 28.8603 22.7803 28.7197C22.6397 28.579 22.4489 28.5 22.25 28.5H20.75V16.3519L25.5313 15.2906L23.0535 21.4688C23.0176 21.5581 22.9994 21.6537 23 21.75C23 23.9353 25.3006 24.75 26.75 24.75C28.1994 24.75 30.5 23.9353 30.5 21.75C30.5006 21.6537 30.4825 21.5581 30.4466 21.4688ZM15.4466 24.75H11.0581L13.25 19.2694L15.4466 24.75ZM24.5628 21.75L26.75 16.2694L28.9419 21.75H24.5628Z" fill="#6F42C1"/>
</svg>
