<svg width="459" height="459" viewBox="0 0 459 459" fill="none" xmlns="http://www.w3.org/2000/svg">
<path d="M330.02 0H128.98C57.86 0 0 57.86 0 128.98V330.02C0 401.14 57.86 459 128.98 459H330.02C401.14 459 459 401.14 459 330.02V128.98C459 57.86 401.14 0 330.02 0ZM419 171.62H388.59C385.63 171.62 382.76 172.58 380.4 174.37L358.1 191.25C355.74 193.03 352.87 194 349.91 194H315.7C313.66 194 312 195.66 312 197.7V204.3C312 206.34 313.66 208 315.7 208H354.11C357.06 208 359.94 207.03 362.29 205.25L384.6 188.37C386.95 186.58 389.83 185.62 392.78 185.62H419V227H317.22C314.34 227 312 229.34 312 232.22V237.78C312 240.66 314.34 243 317.22 243H419V288H392.78C389.83 288 386.95 287.03 384.6 285.25L362.29 268.37C359.94 266.58 357.06 265.62 354.11 265.62H315.7C313.66 265.62 312 267.27 312 269.32V275.92C312 277.96 313.66 279.62 315.7 279.62H349.91C352.87 279.62 355.74 280.58 358.1 282.37L380.4 299.25C382.76 301.03 385.63 302 388.59 302H419V330.02C419 379.08 379.08 419 330.02 419H241V357.23C241 354.89 239.11 353 236.77 353H229.23C226.89 353 225 354.89 225 357.23V419H128.98C79.92 419 40 379.08 40 330.02V302H70.41C73.37 302 76.24 301.03 78.6 299.25L100.9 282.37C103.26 280.58 106.13 279.62 109.09 279.62H143.3C145.34 279.62 147 277.96 147 275.92V269.32C147 267.27 145.34 265.62 143.3 265.62H104.89C101.94 265.62 99.06 266.58 96.71 268.37L74.4 285.25C72.05 287.03 69.17 288 66.22 288H40V245H141.78C144.66 245 147 242.66 147 239.78V234.22C147 231.34 144.66 229 141.78 229H40V185.62H66.22C69.17 185.62 72.05 186.58 74.4 188.37L96.71 205.25C99.06 207.03 101.94 208 104.89 208H143.3C145.34 208 147 206.34 147 204.3V197.7C147 195.66 145.34 194 143.3 194H109.09C106.13 194 103.26 193.03 100.9 191.25L78.6 174.37C76.24 172.58 73.37 171.62 70.41 171.62H40V128.98C40 79.92 79.92 40 128.98 40H226.18C226.06 40.39 226 40.8 226 41.23V100.77C226 103.11 227.89 105 230.23 105H237.77C240.11 105 242 103.11 242 100.77V41.23C242 40.8 241.94 40.39 241.82 40H330.02C379.08 40 419 79.92 419 128.98V171.62Z" fill="url(#paint0_linear_211_242)"/>
<path d="M287 79L161 255H229L180 392L308 221L234.5 220.74L287 79Z" fill="url(#paint1_linear_211_242)"/>
<path d="M367.5 331C362.06 331 356.96 332.48 352.59 335.06L297.35 283.7C294.24 280.81 289.37 280.99 286.48 284.1L285.08 285.6C282.19 288.72 282.36 293.58 285.48 296.48L340.82 347.93C339.01 351.74 338 356 338 360.5C338 376.77 351.23 390 367.5 390C383.77 390 397 376.77 397 360.5C397 344.23 383.77 331 367.5 331ZM367.5 374C360.06 374 354 367.94 354 360.5C354 353.06 360.06 347 367.5 347C374.94 347 381 353.06 381 360.5C381 367.94 374.94 374 367.5 374Z" fill="url(#paint2_linear_211_242)"/>
<path d="M68.02 358.5C68.02 374.77 81.25 388 97.52 388C113.79 388 127.02 374.77 127.02 358.5C127.02 354 126.01 349.74 124.2 345.93L179.54 294.48C182.66 291.58 182.83 286.72 179.94 283.6L178.54 282.1C175.65 278.99 170.78 278.81 167.67 281.7L112.43 333.06C108.06 330.48 102.96 329 97.52 329C81.25 329 68.02 342.23 68.02 358.5ZM84.02 358.5C84.02 351.06 90.08 345 97.52 345C104.96 345 111.02 351.06 111.02 358.5C111.02 365.94 104.96 372 97.52 372C90.08 372 84.02 365.94 84.02 358.5Z" fill="url(#paint3_linear_211_242)"/>
<path d="M99.52 144.64C104.96 144.64 110.06 143.16 114.43 140.58L169.67 191.94C172.78 194.83 177.65 194.65 180.54 191.54L181.94 190.04C184.83 186.92 184.66 182.06 181.54 179.16L126.2 127.71C128.01 123.9 129.02 119.64 129.02 115.14C129.02 98.87 115.79 85.64 99.52 85.64C83.25 85.64 70.02 98.87 70.02 115.14C70.02 131.41 83.25 144.64 99.52 144.64ZM99.52 101.64C106.96 101.64 113.02 107.7 113.02 115.14C113.02 122.58 106.96 128.64 99.52 128.64C92.08 128.64 86.02 122.58 86.02 115.14C86.02 107.7 92.08 101.64 99.52 101.64Z" fill="url(#paint4_linear_211_242)"/>
<path d="M397 112.14C397 95.87 383.77 82.64 367.5 82.64C351.23 82.64 338 95.87 338 112.14C338 116.64 339.01 120.9 340.82 124.71L285.48 176.16C282.36 179.06 282.19 183.92 285.08 187.04L286.48 188.54C289.37 191.65 294.24 191.83 297.35 188.94L352.59 137.58C356.96 140.16 362.06 141.64 367.5 141.64C383.77 141.64 397 128.41 397 112.14ZM381 112.14C381 119.58 374.94 125.64 367.5 125.64C360.06 125.64 354 119.58 354 112.14C354 104.7 360.06 98.64 367.5 98.64C374.94 98.64 381 104.7 381 112.14Z" fill="url(#paint5_linear_211_242)"/>
<path d="M270 319.23V391.77C270 394.106 271.894 396 274.23 396H281.77C284.106 396 286 394.106 286 391.77V319.23C286 316.894 284.106 315 281.77 315H274.23C271.894 315 270 316.894 270 319.23Z" fill="url(#paint6_linear_211_242)"/>
<path d="M174 70.23V142.77C174 145.106 175.894 147 178.23 147H185.77C188.106 147 190 145.106 190 142.77V70.23C190 67.8938 188.106 66 185.77 66H178.23C175.894 66 174 67.8938 174 70.23Z" fill="url(#paint7_linear_211_242)"/>
<defs>
<linearGradient id="paint0_linear_211_242" x1="235.5" y1="472" x2="249.5" y2="-42.5" gradientUnits="userSpaceOnUse">
<stop stop-color="#1A1DF1"/>
<stop offset="1" stop-color="#C7EEFC"/>
</linearGradient>
<linearGradient id="paint1_linear_211_242" x1="230" y1="369.5" x2="246.766" y2="108.757" gradientUnits="userSpaceOnUse">
<stop stop-color="#1A1DF1"/>
<stop offset="1" stop-color="#C7EEFC"/>
</linearGradient>
<linearGradient id="paint2_linear_211_242" x1="318.32" y1="366.16" x2="348.88" y2="313.22" gradientUnits="userSpaceOnUse">
<stop stop-color="#1A1DF1"/>
<stop offset="1" stop-color="#C7EEFC"/>
</linearGradient>
<linearGradient id="paint3_linear_211_242" x1="87.05" y1="386.51" x2="155.3" y2="268.29" gradientUnits="userSpaceOnUse">
<stop stop-color="#1A1DF1"/>
<stop offset="1" stop-color="#C7EEFC"/>
</linearGradient>
<linearGradient id="paint4_linear_211_242" x1="118.14" y1="162.42" x2="148.71" y2="109.48" gradientUnits="userSpaceOnUse">
<stop stop-color="#1A1DF1"/>
<stop offset="1" stop-color="#C7EEFC"/>
</linearGradient>
<linearGradient id="paint5_linear_211_242" x1="309.72" y1="202.36" x2="377.97" y2="84.13" gradientUnits="userSpaceOnUse">
<stop stop-color="#1A1DF1"/>
<stop offset="1" stop-color="#C7EEFC"/>
</linearGradient>
<linearGradient id="paint6_linear_211_242" x1="259.24" y1="388" x2="296.76" y2="323" gradientUnits="userSpaceOnUse">
<stop stop-color="#1A1DF1"/>
<stop offset="1" stop-color="#C7EEFC"/>
</linearGradient>
<linearGradient id="paint7_linear_211_242" x1="163.24" y1="139" x2="200.76" y2="74" gradientUnits="userSpaceOnUse">
<stop stop-color="#1A1DF1"/>
<stop offset="1" stop-color="#C7EEFC"/>
</linearGradient>
</defs>
</svg>
